<svg width="20" height="20" viewBox="0 0 20 20" fill="none" xmlns="http://www.w3.org/2000/svg">
<g clip-path="url(#clip0_2607_30697)">
<path d="M9.99841 18.7449C14.8279 18.7449 18.7429 14.8298 18.7429 10.0004C18.7429 5.17091 14.8279 1.25586 9.99841 1.25586C5.16895 1.25586 1.25391 5.17091 1.25391 10.0004C1.25391 14.8298 5.16895 18.7449 9.99841 18.7449Z" fill="#FFC84D"/>
<path d="M5.36374 10.623C4.78774 10.623 4.52124 11.0545 4.63524 11.52C5.13974 13.5805 7.34773 15.1315 9.99573 15.1315C12.6437 15.1315 14.8517 13.58 15.3562 11.52C15.4702 11.0545 15.3207 10.669 14.7447 10.669L5.36374 10.623Z" fill="#FF6D00"/>
<path d="M14.7443 10.669C13.7483 11.415 12.0328 11.9075 10.0838 11.9075C8.09528 11.9075 6.34978 11.3945 5.36328 10.623L14.7438 10.669H14.7443Z" fill="#212121"/>
<path d="M7.04886 9.29743C7.18686 9.38843 7.36486 9.38843 7.50286 9.29743C7.94086 9.00793 8.89586 8.31643 9.30636 7.54243C9.84836 6.52143 9.21186 5.50293 8.37036 5.50293C7.89086 5.50293 7.60186 5.75343 7.44236 5.96893C7.35836 6.08243 7.19186 6.08243 7.10786 5.96893C6.94836 5.75343 6.65986 5.50293 6.17986 5.50293C5.33836 5.50293 4.70186 6.52143 5.24386 7.54243C5.65486 8.31643 6.60936 9.00793 7.04736 9.29743H7.04886Z" fill="#F5172B"/>
<path d="M12.9506 9.29743C12.8126 9.38843 12.6346 9.38843 12.4966 9.29743C12.0586 9.00793 11.1036 8.31643 10.6931 7.54243C10.1511 6.52143 10.7876 5.50293 11.6291 5.50293C12.1086 5.50293 12.3976 5.75343 12.5571 5.96893C12.6411 6.08243 12.8076 6.08243 12.8916 5.96893C13.0511 5.75343 13.3396 5.50293 13.8196 5.50293C14.6611 5.50293 15.2976 6.52143 14.7556 7.54243C14.3446 8.31643 13.3901 9.00793 12.9521 9.29743H12.9506Z" fill="#F5172B"/>
</g>
<defs>
<clipPath id="clip0_2607_30697">
<rect width="20" height="20" fill="white"/>
</clipPath>
</defs>
</svg>
