<svg width="20" height="20" viewBox="0 0 20 20" fill="none" xmlns="http://www.w3.org/2000/svg">
<g clip-path="url(#clip0_2607_30716)">
<path d="M15.1876 9.50452C14.8986 10.46 15.4401 12.6115 16.6281 11.361C17.8161 10.1105 18.1911 8.11952 17.3641 6.24402C16.6011 5.10552 15.3851 4.37402 14.0201 4.37402C12.2606 4.37402 11.2011 5.29252 10.6151 6.08302C10.3056 6.50052 9.69459 6.50052 9.38509 6.08302C8.79909 5.29252 7.73959 4.37402 5.98009 4.37402C4.52809 4.37402 3.24909 5.20602 2.50059 6.47152C1.80609 8.31002 2.29209 10.577 3.32609 11.8705C4.37009 13.177 6.01159 14.1975 6.01159 12.4225C7.23359 14.2 5.08009 14.6695 7.60409 17.201C8.12409 17.5915 8.60209 17.9255 8.99009 18.186C9.60359 18.5975 10.3971 18.5975 11.0106 18.186C11.7311 17.703 12.7541 16.9715 13.8021 16.0785C13.7246 15.4675 13.7226 14.6655 13.7226 13.881C13.7226 11.6985 14.5521 10.5055 15.1871 9.50402L15.1876 9.50452Z" fill="#EC4452"/>
<path d="M18.1895 9.01984C18.1895 9.09484 18.1895 9.16984 18.1845 9.24984C18.1745 9.45984 18.1545 9.66984 18.1245 9.88484C18.1245 9.88984 18.1195 9.88984 18.1195 9.89484C18.0895 10.1048 18.0445 10.3148 17.9895 10.5298C17.9745 10.5798 17.9495 10.6348 17.9345 10.6898C17.8845 10.8548 17.8345 11.0198 17.7695 11.1848C17.6795 11.4098 17.5795 11.6348 17.4595 11.8598C17.4595 11.8648 17.4545 11.8648 17.4545 11.8648C17.3595 12.0498 17.2495 12.2298 17.1395 12.4098L17.0195 12.5898C16.9395 12.7098 16.8595 12.8348 16.7745 12.9548C16.7245 13.0198 16.6745 13.0848 16.6245 13.1548C16.5395 13.2648 16.4545 13.3748 16.3695 13.4848C16.3145 13.5548 16.2595 13.6198 16.2045 13.6848C16.1145 13.7948 16.0245 13.9048 15.9295 14.0098C15.8745 14.0748 15.8195 14.1348 15.7645 14.1948C15.6595 14.3098 15.5545 14.4198 15.4495 14.5298C15.3995 14.5848 15.3495 14.6348 15.2995 14.6848C15.1745 14.8148 15.0495 14.9398 14.9195 15.0648L14.8245 15.1598C14.4895 15.4798 14.1445 15.7898 13.8045 16.0798C13.7245 15.4698 13.7245 14.6648 13.7245 13.8798C13.7245 11.6998 14.5545 10.5048 15.1895 9.50484C14.8995 10.4598 15.4395 12.6098 16.6295 11.3598C17.3845 10.5698 17.8095 9.47984 17.8095 8.30984C17.8095 7.63484 17.6695 6.92984 17.3645 6.24484C16.6045 5.10484 15.3895 4.37484 14.0245 4.37484C12.2645 4.37484 11.2045 5.29484 10.6195 6.08484C10.3095 6.49984 9.69453 6.49984 9.38953 6.08484C8.79953 5.29484 7.74453 4.37484 5.98453 4.37484C4.52953 4.37484 3.24953 5.20484 2.50453 6.46984C1.80953 8.30984 2.29453 10.5748 3.32953 11.8698C4.37453 13.1798 6.01453 14.1998 6.01453 12.4248C7.23453 14.1998 5.08953 14.6698 7.59953 17.1948C6.98453 16.6748 6.22953 16.1048 5.43953 15.3998C4.43453 14.5048 3.37453 13.3848 2.49953 11.8598C2.07453 11.1198 1.87453 10.3598 1.79953 9.63484C1.79953 9.59984 1.79453 9.56484 1.79453 9.52984C1.78453 9.43984 1.77953 9.34484 1.77453 9.24984C1.76953 9.16984 1.76953 9.09484 1.76953 9.01984C1.76953 5.66984 3.03953 4.12484 4.20953 2.52484C3.67453 4.04984 4.89453 4.21984 5.61453 3.66484C7.52453 2.20484 5.91953 -0.000158262 5.91953 -0.000158262C5.94453 -0.00515826 7.24453 -0.0401583 8.30453 1.85984C9.16953 3.39984 8.61953 4.64484 9.56953 4.79484C10.7495 4.97984 10.0045 1.88984 12.1145 0.779842C11.4645 2.62484 12.3695 3.67984 13.4545 3.83484C14.4445 3.96984 15.7245 3.43984 15.2845 2.16984C16.1895 3.39984 17.9995 5.47484 18.1695 8.51984V8.52984C18.1745 8.60484 18.1795 8.67484 18.1795 8.74484C18.1845 8.83484 18.1895 8.92484 18.1895 9.01984Z" fill="#FF9E00"/>
</g>
<defs>
<clipPath id="clip0_2607_30716">
<rect width="20" height="20" fill="white"/>
</clipPath>
</defs>
</svg>
