<svg width="20" height="20" viewBox="0 0 20 20" fill="none" xmlns="http://www.w3.org/2000/svg">
<g clip-path="url(#clip0_2607_30686)">
<path d="M15.9757 12.3919C16.7967 12.3919 17.4627 11.7429 17.4627 10.9419C17.4627 10.1409 16.7972 9.4919 15.9757 9.4919H15.6107C16.3542 9.4144 16.9357 8.8054 16.9357 8.0574C16.9357 7.2564 16.2722 6.6074 15.4537 6.6074C15.4532 6.6074 15.4527 6.6074 15.4522 6.6074H14.4747H9.06566L10.0752 3.1779L10.0707 3.1759C10.3492 2.4749 10.0847 1.6584 9.41216 1.2699C8.67266 0.842901 7.72716 1.0964 7.30016 1.8359L3.35266 8.5999H3.35666C2.83566 9.5289 2.53516 10.5984 2.53516 11.7389C2.53516 15.2879 5.41216 18.1654 8.96166 18.1654H14.4747V18.1609H14.4757C15.2967 18.1609 15.9627 17.5119 15.9627 16.7109C15.9627 15.9634 15.3802 15.3549 14.6352 15.2764H15.2257C16.0467 15.2764 16.7127 14.6274 16.7127 13.8264C16.7127 13.0789 16.1302 12.4704 15.3852 12.3919H15.9757Z" fill="#FFCCA8"/>
</g>
<defs>
<clipPath id="clip0_2607_30686">
<rect width="20" height="20" fill="white"/>
</clipPath>
</defs>
</svg>
