<svg width="20" height="20" viewBox="0 0 20 20" fill="none" xmlns="http://www.w3.org/2000/svg">
<g clip-path="url(#clip0_2607_30665)">
<path d="M6.16499 4.62688C6.0881 4.49772 5.97897 4.39075 5.84829 4.31647C5.71762 4.24218 5.56988 4.20312 5.41957 4.20312C5.26926 4.20312 5.12152 4.24218 4.99085 4.31647C4.86017 4.39075 4.75104 4.49772 4.67415 4.62688L0.0908202 13.7935C0.0408917 13.8915 0.0108549 13.9985 0.00244181 14.1081C-0.00597132 14.2178 0.00740558 14.328 0.0418012 14.4325C0.0761969 14.5369 0.130931 14.6336 0.202848 14.7168C0.274764 14.8 0.362441 14.8681 0.460822 14.9173C0.559203 14.9665 0.666344 14.9957 0.776065 15.0032C0.885786 15.0108 0.995919 14.9965 1.10011 14.9613C1.20431 14.9261 1.3005 14.8706 1.38315 14.7981C1.46579 14.7255 1.53326 14.6373 1.58165 14.5385L3.01415 11.666H7.81749L9.25415 14.5385C9.30255 14.6373 9.37001 14.7255 9.45266 14.7981C9.53531 14.8706 9.6315 14.9261 9.73569 14.9613C9.83989 14.9965 9.95002 15.0108 10.0597 15.0032C10.1695 14.9957 10.2766 14.9665 10.375 14.9173C10.4734 14.8681 10.561 14.8 10.633 14.7168C10.7049 14.6336 10.7596 14.5369 10.794 14.4325C10.8284 14.328 10.8418 14.2178 10.8334 14.1081C10.825 13.9985 10.7949 13.8915 10.745 13.7935L6.16499 4.62688ZM3.84749 9.99938L5.41499 6.86271L6.98415 9.99938H3.84749Z" fill="#212121"/>
<path d="M19.1679 6.66602C18.9469 6.66602 18.735 6.75381 18.5787 6.91009C18.4224 7.06637 18.3346 7.27834 18.3346 7.49935V7.52102C17.6176 6.96951 16.7392 6.66908 15.8346 6.66602C14.7296 6.66602 13.6698 7.105 12.8884 7.8864C12.107 8.66781 11.668 9.72761 11.668 10.8327C11.668 11.9378 12.107 12.9976 12.8884 13.779C13.6698 14.5604 14.7296 14.9993 15.8346 14.9993C16.7392 14.9963 17.6176 14.6959 18.3346 14.1443V14.166C18.3346 14.387 18.4224 14.599 18.5787 14.7553C18.735 14.9116 18.9469 14.9993 19.1679 14.9993C19.389 14.9993 19.6009 14.9116 19.7572 14.7553C19.9135 14.599 20.0013 14.387 20.0013 14.166V7.49935C20.0013 7.27834 19.9135 7.06637 19.7572 6.91009C19.6009 6.75381 19.389 6.66602 19.1679 6.66602ZM15.8346 13.3327C15.3402 13.3327 14.8568 13.1861 14.4457 12.9114C14.0346 12.6367 13.7141 12.2462 13.5249 11.7894C13.3357 11.3326 13.2862 10.8299 13.3827 10.345C13.4791 9.86 13.7172 9.41455 14.0669 9.06491C14.4165 8.71528 14.8619 8.47718 15.3469 8.38072C15.8318 8.28426 16.3345 8.33376 16.7913 8.52298C17.2481 8.7122 17.6386 9.03263 17.9133 9.44376C18.188 9.85488 18.3346 10.3382 18.3346 10.8327C18.3346 11.4957 18.0712 12.1316 17.6024 12.6004C17.1335 13.0693 16.4977 13.3327 15.8346 13.3327Z" fill="#212121"/>
</g>
<defs>
<clipPath id="clip0_2607_30665">
<rect width="20" height="20" fill="white"/>
</clipPath>
</defs>
</svg>
