<svg width="20" height="20" viewBox="0 0 20 20" fill="none" xmlns="http://www.w3.org/2000/svg">
<g clip-path="url(#clip0_2607_30691)">
<path d="M15.9757 10.5085C16.7967 10.5085 17.4627 9.85946 17.4627 9.05846C17.4627 8.25746 16.7972 7.60846 15.9757 7.60846H15.3852C16.1302 7.52996 16.7127 6.92146 16.7127 6.17396C16.7127 5.37296 16.0472 4.72396 15.2257 4.72396H14.6352C15.3802 4.64546 15.9627 4.03746 15.9627 3.28946C15.9627 2.48846 15.2972 1.83946 14.4757 1.83946H14.4747V1.83496H8.96166C5.41266 1.83496 2.53516 4.71196 2.53516 8.26146C2.53516 9.40196 2.83566 10.4715 3.35666 11.4H3.35266L7.30016 18.1645C7.72716 18.904 8.67266 19.1575 9.41216 18.7305C10.0847 18.342 10.3492 17.526 10.0707 16.8245L10.0752 16.8225L9.06566 13.393H14.4747H15.4522C15.4527 13.393 15.4532 13.393 15.4537 13.393C16.2722 13.393 16.9357 12.744 16.9357 11.943C16.9357 11.195 16.3542 10.586 15.6107 10.5085H15.9757Z" fill="#FFCCA8"/>
</g>
<defs>
<clipPath id="clip0_2607_30691">
<rect width="20" height="20" fill="white"/>
</clipPath>
</defs>
</svg>
