<svg width="20" height="20" viewBox="0 0 20 20" fill="none" xmlns="http://www.w3.org/2000/svg">
<g clip-path="url(#clip0_2607_30671)">
<path d="M15.8333 0.833984H10.8333C9.72867 0.835308 8.66963 1.27472 7.88852 2.05583C7.1074 2.83695 6.66799 3.89599 6.66667 5.00065V11.689C5.94968 11.1375 5.07123 10.837 4.16667 10.834C3.34258 10.834 2.537 11.0784 1.85179 11.5362C1.16659 11.994 0.632536 12.6448 0.317171 13.4061C0.00180535 14.1675 -0.0807086 15.0053 0.0800632 15.8135C0.240835 16.6218 0.637672 17.3642 1.22039 17.9469C1.80311 18.5296 2.54554 18.9265 3.35379 19.0873C4.16205 19.248 4.99982 19.1655 5.76118 18.8502C6.52254 18.5348 7.17329 18.0007 7.63113 17.3155C8.08896 16.6303 8.33334 15.8247 8.33334 15.0007V5.00065C8.33334 4.33761 8.59673 3.70173 9.06557 3.23288C9.53441 2.76404 10.1703 2.50065 10.8333 2.50065H15.8333C16.4964 2.50065 17.1323 2.76404 17.6011 3.23288C18.0699 3.70173 18.3333 4.33761 18.3333 5.00065V11.689C17.6163 11.1375 16.7379 10.837 15.8333 10.834C15.0092 10.834 14.2037 11.0784 13.5185 11.5362C12.8333 11.994 12.2992 12.6448 11.9838 13.4061C11.6685 14.1675 11.586 15.0053 11.7467 15.8135C11.9075 16.6218 12.3043 17.3642 12.8871 17.9469C13.4698 18.5296 14.2122 18.9265 15.0205 19.0873C15.8287 19.248 16.6665 19.1655 17.4279 18.8502C18.1892 18.5348 18.84 18.0007 19.2978 17.3155C19.7556 16.6303 20 15.8247 20 15.0007V5.00065C19.9987 3.89599 19.5593 2.83695 18.7782 2.05583C17.997 1.27472 16.938 0.835308 15.8333 0.833984V0.833984ZM4.16667 17.5007C3.67222 17.5007 3.18887 17.354 2.77774 17.0793C2.36662 16.8046 2.04619 16.4142 1.85697 15.9574C1.66775 15.5005 1.61824 14.9979 1.71471 14.5129C1.81117 14.028 2.04927 13.5825 2.3989 13.2329C2.74853 12.8833 3.19399 12.6452 3.67894 12.5487C4.1639 12.4522 4.66656 12.5017 5.12338 12.691C5.58019 12.8802 5.97064 13.2006 6.24534 13.6117C6.52005 14.0228 6.66667 14.5062 6.66667 15.0007C6.66667 15.6637 6.40328 16.2996 5.93444 16.7684C5.4656 17.2373 4.82971 17.5007 4.16667 17.5007ZM15.8333 17.5007C15.3389 17.5007 14.8555 17.354 14.4444 17.0793C14.0333 16.8046 13.7129 16.4142 13.5236 15.9574C13.3344 15.5005 13.2849 14.9979 13.3814 14.5129C13.4778 14.028 13.7159 13.5825 14.0656 13.2329C14.4152 12.8833 14.8607 12.6452 15.3456 12.5487C15.8306 12.4522 16.3332 12.5017 16.79 12.691C17.2469 12.8802 17.6373 13.2006 17.912 13.6117C18.1867 14.0228 18.3333 14.5062 18.3333 15.0007C18.3333 15.6637 18.0699 16.2996 17.6011 16.7684C17.1323 17.2373 16.4964 17.5007 15.8333 17.5007Z" fill="#212121"/>
</g>
<defs>
<clipPath id="clip0_2607_30671">
<rect width="20" height="20" fill="white"/>
</clipPath>
</defs>
</svg>
