<svg width="20" height="20" viewBox="0 0 20 20" fill="none" xmlns="http://www.w3.org/2000/svg">
<g clip-path="url(#clip0_2607_30675)">
<path d="M10 18.75C14.8325 18.75 18.75 14.8325 18.75 10C18.75 5.16751 14.8325 1.25 10 1.25C5.16751 1.25 1.25 5.16751 1.25 10C1.25 14.8325 5.16751 18.75 10 18.75Z" fill="#FFC84D"/>
<path d="M6.09692 8.09897C5.97342 8.15997 5.83142 8.05297 5.85892 7.91797C6.01142 7.16847 6.65642 6.60547 7.42892 6.60547C8.20142 6.60547 8.84642 7.16847 8.99892 7.91797C9.02642 8.05297 8.88442 8.15997 8.76092 8.09897C8.49142 7.96597 8.03242 7.79847 7.42892 7.79847C6.82542 7.79847 6.36642 7.96597 6.09692 8.09897Z" fill="black"/>
<path d="M13.9015 8.09897C14.025 8.15997 14.167 8.05297 14.1395 7.91797C13.987 7.16847 13.342 6.60547 12.5695 6.60547C11.797 6.60547 11.152 7.16847 10.9995 7.91797C10.972 8.05297 11.114 8.15997 11.2375 8.09897C11.507 7.96597 11.966 7.79847 12.5695 7.79847C13.173 7.79847 13.632 7.96597 13.9015 8.09897Z" fill="black"/>
<path d="M9.90912 12.2613C8.13162 12.2613 6.85362 11.4838 6.15662 10.9153C5.95062 10.7473 5.65312 10.9823 5.77412 11.2193C6.39712 12.4388 8.19712 13.3318 9.90912 13.3318C11.6211 13.3318 13.4216 12.4393 14.0441 11.2193C14.1651 10.9828 13.8676 10.7473 13.6616 10.9153C12.9646 11.4838 11.6866 12.2613 9.90912 12.2613Z" fill="#FF6D00"/>
<path d="M15.0171 12.6674L14.1126 11.0819L13.9011 10.7109C13.9011 10.7109 13.8961 10.7119 13.8936 10.7139C13.3106 11.2439 12.0576 12.1359 10.2461 12.2404L11.0301 13.6149L11.6111 14.6334C12.1381 15.5459 13.3271 15.8454 14.2676 15.3024C15.2081 14.7594 15.5431 13.5794 15.0166 12.6674H15.0171Z" fill="#F5172B"/>
</g>
<defs>
<clipPath id="clip0_2607_30675">
<rect width="20" height="20" fill="white"/>
</clipPath>
</defs>
</svg>
