<svg width="20" height="20" viewBox="0 0 20 20" fill="none" xmlns="http://www.w3.org/2000/svg">
<g clip-path="url(#clip0_2607_30709)">
<path d="M15.6085 5.53499C15.813 6.89949 16.0505 7.68049 15.0745 7.68049C13.7465 7.68049 13.746 4.53749 11.4985 2.74699C9.27497 0.975987 7.61647 1.40649 7.58147 1.41599C7.58097 1.41649 7.57997 1.41749 7.57947 1.41799C9.43147 2.96399 8.39847 5.50499 7.18647 6.20549C6.02347 6.87749 4.69597 6.02999 5.39097 4.03549C3.86247 6.12549 2.54297 8.65799 2.54297 11.1815C2.54297 15.299 5.88097 18.637 9.99847 18.637C14.116 18.637 17.454 15.299 17.454 11.1815C17.454 9.23599 16.668 7.28499 15.6085 5.53499Z" fill="#EF4452"/>
<path d="M9.99981 10.0088C9.99981 10.0088 13.2418 11.8758 13.2418 14.4843C13.2418 16.2748 11.7903 17.7263 9.99981 17.7263C8.20931 17.7263 6.75781 16.2748 6.75781 14.4843C6.75781 11.8758 9.99981 10.0088 9.99981 10.0088Z" fill="#FF7978"/>
</g>
<defs>
<clipPath id="clip0_2607_30709">
<rect width="20" height="20" fill="white"/>
</clipPath>
</defs>
</svg>
